<svg xmlns="http://www.w3.org/2000/svg" width="1400" height="820" viewBox="0 0 1400 820">
  <defs>
    <linearGradient id="hero" x1="0" y1="0" x2="1" y2="0">
      <stop offset="0" stop-color="#cefe82" stop-opacity="0.45"/>
      <stop offset="0.6" stop-color="#506a75" stop-opacity="0.35"/>
      <stop offset="1" stop-color="#ffffff" stop-opacity="0.12"/>
    </linearGradient>
    <filter id="blur" x="-20%" y="-20%" width="140%" height="140%">
      <feGaussianBlur stdDeviation="16"/>
    </filter>
  </defs>

  <rect x="0" y="0" width="1400" height="820" rx="32" fill="rgba(255,255,255,0.06)" stroke="rgba(255,255,255,0.16)"/>

  <circle cx="260" cy="220" r="170" fill="url(#hero)" filter="url(#blur)"/>
  <circle cx="1180" cy="140" r="130" fill="url(#hero)" filter="url(#blur)" opacity="0.9"/>

  <rect x="40" y="40" width="1320" height="84" rx="22" fill="rgba(0,0,0,0.28)" stroke="rgba(255,255,255,0.12)"/>
  <rect x="68" y="68" width="140" height="28" rx="14" fill="rgba(206,254,130,0.20)"/>
  <rect x="1020" y="62" width="140" height="40" rx="20" fill="rgba(255,255,255,0.06)" stroke="rgba(255,255,255,0.12)"/>
  <rect x="1170" y="62" width="170" height="40" rx="20" fill="#cefe82" opacity="0.9"/>

  <!-- Hero block -->
  <rect x="40" y="150" width="1320" height="280" rx="28" fill="rgba(0,0,0,0.28)" stroke="rgba(255,255,255,0.12)"/>
  <rect x="80" y="190" width="240" height="32" rx="16" fill="rgba(255,255,255,0.06)" stroke="rgba(255,255,255,0.12)"/>
  <rect x="80" y="240" width="560" height="52" rx="18" fill="rgba(255,255,255,0.10)"/>
  <rect x="80" y="305" width="460" height="20" rx="10" fill="rgba(255,255,255,0.08)"/>
  <rect x="80" y="332" width="420" height="20" rx="10" fill="rgba(255,255,255,0.06)"/>

  <rect x="80" y="370" width="170" height="44" rx="22" fill="#cefe82" opacity="0.92"/>
  <rect x="260" y="370" width="210" height="44" rx="22" fill="rgba(255,255,255,0.06)" stroke="rgba(255,255,255,0.12)"/>

  <rect x="760" y="188" width="560" height="210" rx="22" fill="rgba(255,255,255,0.06)" stroke="rgba(255,255,255,0.12)"/>
  <rect x="790" y="218" width="500" height="20" rx="10" fill="rgba(255,255,255,0.10)"/>
  <rect x="790" y="250" width="430" height="20" rx="10" fill="rgba(255,255,255,0.07)"/>
  <rect x="790" y="282" width="470" height="20" rx="10" fill="rgba(255,255,255,0.06)"/>
  <rect x="790" y="320" width="280" height="60" rx="18" fill="rgba(80,106,117,0.35)"/>

  <!-- Features blocks -->
  <rect x="40" y="460" width="1320" height="320" rx="28" fill="rgba(0,0,0,0.28)" stroke="rgba(255,255,255,0.12)"/>
  <rect x="80" y="510" width="400" height="220" rx="22" fill="rgba(255,255,255,0.06)" stroke="rgba(255,255,255,0.12)"/>
  <rect x="500" y="510" width="400" height="220" rx="22" fill="rgba(255,255,255,0.06)" stroke="rgba(255,255,255,0.12)"/>
  <rect x="920" y="510" width="400" height="220" rx="22" fill="rgba(255,255,255,0.06)" stroke="rgba(255,255,255,0.12)"/>

  <rect x="110" y="552" width="250" height="18" rx="9" fill="rgba(255,255,255,0.10)"/>
  <rect x="110" y="580" width="320" height="14" rx="7" fill="rgba(255,255,255,0.06)"/>
  <rect x="530" y="552" width="260" height="18" rx="9" fill="rgba(255,255,255,0.10)"/>
  <rect x="530" y="580" width="330" height="14" rx="7" fill="rgba(255,255,255,0.06)"/>
  <rect x="950" y="552" width="220" height="18" rx="9" fill="rgba(255,255,255,0.10)"/>
  <rect x="950" y="580" width="340" height="14" rx="7" fill="rgba(255,255,255,0.06)"/>
</svg>
