<svg xmlns="http://www.w3.org/2000/svg" width="1400" height="820" viewBox="0 0 1400 820">
  <defs>
    <linearGradient id="g" x1="0" y1="0" x2="1" y2="1">
      <stop offset="0" stop-color="#cefe82" stop-opacity="0.35"/>
      <stop offset="0.5" stop-color="#506a75" stop-opacity="0.25"/>
      <stop offset="1" stop-color="#ffffff" stop-opacity="0.10"/>
    </linearGradient>
    <filter id="blur" x="-20%" y="-20%" width="140%" height="140%">
      <feGaussianBlur stdDeviation="18"/>
    </filter>
  </defs>

  <rect x="0" y="0" width="1400" height="820" rx="32" fill="rgba(255,255,255,0.06)" stroke="rgba(255,255,255,0.16)"/>

  <circle cx="220" cy="150" r="130" fill="url(#g)" filter="url(#blur)"/>
  <circle cx="1150" cy="250" r="170" fill="url(#g)" filter="url(#blur)" opacity="0.8"/>

  <rect x="40" y="40" width="290" height="740" rx="24" fill="rgba(0,0,0,0.28)" stroke="rgba(255,255,255,0.12)"/>
  <rect x="370" y="40" width="990" height="120" rx="24" fill="rgba(0,0,0,0.28)" stroke="rgba(255,255,255,0.12)"/>

  <g fill="rgba(255,255,255,0.18)">
    <rect x="70" y="90" width="220" height="18" rx="9"/>
    <rect x="70" y="150" width="180" height="14" rx="7"/>
    <rect x="70" y="190" width="200" height="14" rx="7"/>
    <rect x="70" y="230" width="160" height="14" rx="7"/>
    <rect x="70" y="270" width="190" height="14" rx="7"/>
  </g>

  <g>
    <rect x="410" y="200" width="300" height="180" rx="24" fill="rgba(255,255,255,0.06)" stroke="rgba(255,255,255,0.12)"/>
    <rect x="740" y="200" width="300" height="180" rx="24" fill="rgba(255,255,255,0.06)" stroke="rgba(255,255,255,0.12)"/>
    <rect x="1070" y="200" width="260" height="180" rx="24" fill="rgba(255,255,255,0.06)" stroke="rgba(255,255,255,0.12)"/>

    <rect x="410" y="410" width="920" height="150" rx="24" fill="rgba(255,255,255,0.06)" stroke="rgba(255,255,255,0.12)"/>
    <rect x="410" y="590" width="920" height="190" rx="24" fill="rgba(255,255,255,0.06)" stroke="rgba(255,255,255,0.12)"/>
  </g>

  <g fill="#cefe82" opacity="0.9">
    <circle cx="450" cy="240" r="6"/>
    <circle cx="780" cy="240" r="6"/>
    <circle cx="1110" cy="240" r="6"/>
  </g>

  <g fill="rgba(255,255,255,0.18)">
    <rect x="430" y="270" width="150" height="12" rx="6"/>
    <rect x="430" y="295" width="210" height="10" rx="5"/>
    <rect x="430" y="315" width="190" height="10" rx="5"/>

    <rect x="760" y="270" width="160" height="12" rx="6"/>
    <rect x="760" y="295" width="220" height="10" rx="5"/>
    <rect x="760" y="315" width="200" height="10" rx="5"/>

    <rect x="1090" y="270" width="120" height="12" rx="6"/>
    <rect x="1090" y="295" width="180" height="10" rx="5"/>
    <rect x="1090" y="315" width="160" height="10" rx="5"/>
  </g>

  <g fill="rgba(255,255,255,0.12)">
    <rect x="430" y="450" width="850" height="14" rx="7"/>
    <rect x="430" y="480" width="780" height="10" rx="5"/>
    <rect x="430" y="500" width="820" height="10" rx="5"/>

    <rect x="430" y="630" width="540" height="14" rx="7"/>
    <rect x="430" y="660" width="880" height="10" rx="5"/>
    <rect x="430" y="680" width="820" height="10" rx="5"/>
    <rect x="430" y="700" width="760" height="10" rx="5"/>
  </g>
</svg>
